<svg width="94" height="12" viewBox="0 0 94 12" fill="none" xmlns="http://www.w3.org/2000/svg">
<g clip-path="url(#clip0)">
<path fill-rule="evenodd" clip-rule="evenodd" d="M89.1913 2.18953C89.074 2.45479 89.0154 2.74148 89.0154 3.04965C89.0154 3.3656 89.074 3.65717 89.1913 3.92438C89.3085 4.19157 89.4678 4.42366 89.6691 4.62065C89.8704 4.81764 90.1049 4.97171 90.3725 5.08289C90.6403 5.19406 90.9246 5.24965 91.2255 5.24965C91.5226 5.24965 91.8049 5.19406 92.0727 5.08289C92.3404 4.97171 92.5739 4.81764 92.7732 4.62065C92.9725 4.42366 93.1308 4.19157 93.2481 3.92438C93.3653 3.65717 93.4239 3.3656 93.4239 3.04965C93.4239 2.74148 93.3653 2.45479 93.2481 2.18953C93.1308 1.92429 92.9725 1.69415 92.7732 1.49911C92.5739 1.30407 92.3404 1.15097 92.0727 1.0398C91.8049 0.928631 91.5226 0.873047 91.2255 0.873047C90.9246 0.873047 90.6403 0.928631 90.3725 1.0398C90.1049 1.15097 89.8704 1.30407 89.6691 1.49911C89.4678 1.69415 89.3085 1.92429 89.1913 2.18953ZM89.4123 3.04968C89.4123 3.31883 89.4582 3.5675 89.5502 3.79569C89.642 4.02388 89.769 4.22184 89.9312 4.38957C90.0934 4.5573 90.2849 4.68895 90.5057 4.78452C90.7265 4.88008 90.9659 4.92787 91.2239 4.92787C91.4779 4.92787 91.7143 4.88008 91.9331 4.78452C92.152 4.68895 92.3426 4.5573 92.5048 4.38957C92.667 4.22184 92.7939 4.02388 92.8858 3.79569C92.9776 3.5675 93.0236 3.31883 93.0236 3.04968C93.0236 2.78833 92.9776 2.54453 92.8858 2.31829C92.7939 2.09205 92.667 1.89605 92.5048 1.73026C92.3426 1.56448 92.152 1.43381 91.9331 1.33824C91.7143 1.24267 91.4779 1.19489 91.2239 1.19489C90.9659 1.19489 90.7265 1.24267 90.5057 1.33824C90.2849 1.43381 90.0934 1.56448 89.9312 1.73026C89.769 1.89605 89.642 2.09205 89.5502 2.31829C89.4582 2.54453 89.4123 2.78833 89.4123 3.04968ZM91.3592 1.78007H90.3684V4.33698H90.767V3.23698H91.1891L91.8868 4.33698H92.3147L91.5818 3.20773C91.7734 3.18823 91.9336 3.12484 92.0626 3.01757C92.1916 2.9103 92.2561 2.7416 92.2561 2.51146C92.2561 2.26571 92.1828 2.08238 92.0362 1.96146C91.8897 1.84053 91.664 1.78007 91.3592 1.78007ZM91.1853 2.91553H90.769V2.10224H91.2966C91.3631 2.10224 91.4306 2.10711 91.4989 2.11687C91.5673 2.12661 91.6279 2.14514 91.6806 2.17244C91.7335 2.19975 91.7764 2.23876 91.8096 2.28947C91.8428 2.34018 91.8595 2.40844 91.8595 2.49425C91.8595 2.59567 91.8409 2.67466 91.8037 2.73123C91.7667 2.78779 91.7168 2.82971 91.6543 2.85702C91.5918 2.88433 91.5194 2.90091 91.4373 2.90675C91.3553 2.91261 91.2713 2.91553 91.1853 2.91553Z" fill="#242424"/>
<path d="M7.60933 4.54389H10.5872C10.3594 2.39513 8.38295 0.863281 5.81833 0.863281C2.8934 0.863281 0.519531 2.84998 0.519531 6.38419C0.519531 9.77203 2.67084 11.8633 5.83953 11.8633C8.67969 11.8633 10.7144 10.1485 10.7144 7.22069V5.73591H5.90311V7.80625H7.87427C7.84777 8.73686 7.18012 9.33287 5.86072 9.33287C4.33466 9.33287 3.55044 8.2245 3.55044 6.34237C3.55044 4.48638 4.39825 3.3937 5.88192 3.3937C6.80391 3.3937 7.42916 3.81195 7.60933 4.54389Z" fill="#242424"/>
<path d="M22.2891 6.36328C22.2891 2.78724 19.9577 0.863281 17.0115 0.863281C14.0442 0.863281 11.7339 2.78724 11.7339 6.36328C11.7339 9.91841 14.0442 11.8633 17.0115 11.8633C19.9577 11.8633 22.2891 9.93932 22.2891 6.36328ZM19.2582 6.36328C19.2582 8.28724 18.4739 9.33287 17.0115 9.33287C15.549 9.33287 14.7648 8.28724 14.7648 6.36328C14.7648 4.43932 15.549 3.3937 17.0115 3.3937C18.4739 3.3937 19.2582 4.43932 19.2582 6.36328Z" fill="#242424"/>
<path d="M33.8557 6.36328C33.8557 2.78724 31.5242 0.863281 28.5781 0.863281C25.6108 0.863281 23.3005 2.78724 23.3005 6.36328C23.3005 9.91841 25.6108 11.8633 28.5781 11.8633C31.5242 11.8633 33.8557 9.93932 33.8557 6.36328ZM30.8248 6.36328C30.8248 8.28724 30.0406 9.33287 28.5781 9.33287C27.1157 9.33287 26.3314 8.28724 26.3314 6.36328C26.3314 4.43932 27.1157 3.3937 28.5781 3.3937C30.0406 3.3937 30.8248 4.43932 30.8248 6.36328Z" fill="#242424"/>
<path d="M39.0853 11.717C42.3918 11.717 44.4901 9.70938 44.4901 6.36338C44.4901 3.01737 42.3918 1.00977 39.0429 1.00977H34.9099V11.717H39.0853ZM37.856 9.2493V3.47745H38.8946C40.5902 3.47745 41.5228 4.12574 41.5228 6.36338C41.5228 8.60102 40.5902 9.2493 38.9794 9.2493H37.856Z" fill="#242424"/>
<path d="M53.0855 5.2002H45.6248V7.57141H53.0855V5.2002Z" fill="#242424"/>
<path d="M57.3558 1.00977H54.4097V11.717H57.3558V1.00977Z" fill="#242424"/>
<path d="M62.9253 11.717C66.2317 11.717 68.33 9.70938 68.33 6.36338C68.33 3.01737 66.2317 1.00977 62.8829 1.00977H58.7498V11.717H62.9253ZM61.696 9.2493V3.47745H62.7344C64.4301 3.47745 65.3627 4.12574 65.3627 6.36338C65.3627 8.60102 64.4301 9.2493 62.8192 9.2493H61.696Z" fill="#242424"/>
<path d="M69.3513 11.717H77.1511V9.37478H72.2974V7.53448H76.7697V5.19227H72.2974V3.35197H77.1723V1.00977H69.3513V11.717Z" fill="#242424"/>
<path d="M81.0774 11.717L81.7027 9.66756H85.2847L85.9099 11.717H89.0893L85.5073 1.00977H81.4802L77.8982 11.717H81.0774ZM82.3703 7.49265L83.4513 3.95844H83.5361L84.617 7.49265H82.3703Z" fill="#242424"/>
</g>
<defs>
<clipPath id="clip0">
<rect width="93" height="11" fill="white" transform="translate(0.468262 0.863281)"/>
</clipPath>
</defs>
</svg>
