<svg width="164" height="63" viewBox="0 0 164 63" fill="none" xmlns="http://www.w3.org/2000/svg">
<g clip-path="url(#clip0)">
<path fill-rule="evenodd" clip-rule="evenodd" d="M156.457 3.3251C156.25 3.80738 156.147 4.32864 156.147 4.88894C156.147 5.4634 156.25 5.99354 156.457 6.47936C156.664 6.96517 156.945 7.38715 157.3 7.74531C157.655 8.10347 158.068 8.38361 158.54 8.58575C159.012 8.78787 159.514 8.88894 160.044 8.88894C160.568 8.88894 161.066 8.78787 161.538 8.58575C162.01 8.38361 162.422 8.10347 162.774 7.74531C163.125 7.38715 163.404 6.96517 163.611 6.47936C163.818 5.99354 163.921 5.4634 163.921 4.88894C163.921 4.32864 163.818 3.80738 163.611 3.3251C163.404 2.84284 163.125 2.4244 162.774 2.06979C162.422 1.71517 162.01 1.43681 161.538 1.23468C161.066 1.03255 160.568 0.931488 160.044 0.931488C159.514 0.931488 159.012 1.03255 158.54 1.23468C158.068 1.43681 157.655 1.71517 157.3 2.06979C156.945 2.4244 156.664 2.84284 156.457 3.3251ZM156.847 4.88899C156.847 5.37836 156.928 5.83049 157.09 6.24538C157.252 6.66028 157.476 7.0202 157.762 7.32517C158.048 7.63013 158.386 7.86949 158.775 8.04326C159.164 8.21701 159.587 8.30389 160.041 8.30389C160.489 8.30389 160.906 8.21701 161.292 8.04326C161.678 7.86949 162.014 7.63013 162.3 7.32517C162.586 7.0202 162.81 6.66028 162.972 6.24538C163.134 5.83049 163.215 5.37836 163.215 4.88899C163.215 4.41382 163.134 3.97056 162.972 3.55921C162.81 3.14785 162.586 2.79149 162.3 2.49006C162.014 2.18864 161.678 1.95105 161.292 1.77729C160.906 1.60353 160.489 1.51665 160.041 1.51665C159.587 1.51665 159.164 1.60353 158.775 1.77729C158.386 1.95105 158.048 2.18864 157.762 2.49006C157.476 2.79149 157.252 3.14785 157.09 3.55921C156.928 3.97056 156.847 4.41382 156.847 4.88899ZM160.28 2.58062H158.533V7.22956H159.236V5.22956H159.98L161.21 7.22956H161.965L160.673 5.17636C161.01 5.14091 161.293 5.02566 161.521 4.83063C161.748 4.63559 161.862 4.32885 161.862 3.91042C161.862 3.46361 161.732 3.13028 161.474 2.91042C161.216 2.69056 160.818 2.58062 160.28 2.58062ZM159.974 4.6451H159.239V3.16638H160.17C160.287 3.16638 160.406 3.17524 160.526 3.19298C160.647 3.2107 160.754 3.24438 160.847 3.29403C160.94 3.34368 161.016 3.41461 161.074 3.5068C161.133 3.59899 161.162 3.72312 161.162 3.87914C161.162 4.06354 161.13 4.20715 161.064 4.30999C160.999 4.41284 160.911 4.48907 160.801 4.53871C160.69 4.58836 160.563 4.6185 160.418 4.62914C160.273 4.63978 160.125 4.6451 159.974 4.6451Z" fill="#FBFBF8"/>
<path d="M12.595 7.60608H17.8463C17.4446 3.69924 13.9592 0.914062 9.43665 0.914062C4.2787 0.914062 0.0925293 4.52624 0.0925293 10.9521C0.0925293 17.1118 3.88624 20.9141 9.47404 20.9141C14.4825 20.9141 18.0706 17.7962 18.0706 12.473V9.77338H9.58616V13.5376H13.0622C13.0154 15.2297 11.8381 16.3133 9.51141 16.3133C6.82029 16.3133 5.43737 14.2981 5.43737 10.876C5.43737 7.50152 6.93243 5.51482 9.54879 5.51482C11.1747 5.51482 12.2773 6.27527 12.595 7.60608Z" fill="#FBFBF8"/>
<path d="M38.4836 10.9141C38.4836 4.41217 34.3721 0.914062 29.1767 0.914062C23.9441 0.914062 19.87 4.41217 19.87 10.9141C19.87 17.3779 23.9441 20.9141 29.1767 20.9141C34.3721 20.9141 38.4836 17.416 38.4836 10.9141ZM33.1386 10.9141C33.1386 14.4122 31.7556 16.3133 29.1767 16.3133C26.5978 16.3133 25.2148 14.4122 25.2148 10.9141C25.2148 7.41596 26.5978 5.51482 29.1767 5.51482C31.7556 5.51482 33.1386 7.41596 33.1386 10.9141Z" fill="#FBFBF8"/>
<path d="M58.8774 10.9141C58.8774 4.41217 54.766 0.914062 49.5707 0.914062C44.3381 0.914062 40.264 4.41217 40.264 10.9141C40.264 17.3779 44.3381 20.9141 49.5707 20.9141C54.766 20.9141 58.8774 17.416 58.8774 10.9141ZM53.5327 10.9141C53.5327 14.4122 52.1497 16.3133 49.5707 16.3133C46.9918 16.3133 45.6088 14.4122 45.6088 10.9141C45.6088 7.41596 46.9918 5.51482 49.5707 5.51482C52.1497 5.51482 53.5327 7.41596 53.5327 10.9141Z" fill="#FBFBF8"/>
<path d="M68.0959 20.6479C73.9267 20.6479 77.6268 16.9977 77.6268 10.914C77.6268 4.8304 73.9267 1.18021 68.0211 1.18021H60.7328V20.6479H68.0959ZM65.9281 16.1612V5.66691H67.7595C70.7496 5.66691 72.3942 6.84561 72.3942 10.914C72.3942 14.9825 70.7496 16.1612 67.909 16.1612H65.9281Z" fill="#FBFBF8"/>
<path d="M92.7866 8.80057H79.6301V13.1119H92.7866V8.80057Z" fill="#FBFBF8"/>
<path d="M100.314 1.18021H95.1191V20.6479H100.314V1.18021Z" fill="#FBFBF8"/>
<path d="M110.14 20.6479C115.97 20.6479 119.67 16.9977 119.67 10.914C119.67 4.8304 115.97 1.18021 110.065 1.18021H102.776V20.6479H110.14ZM107.972 16.1612V5.66691H109.803C112.793 5.66691 114.438 6.84561 114.438 10.914C114.438 14.9825 112.793 16.1612 109.952 16.1612H107.972Z" fill="#FBFBF8"/>
<path d="M121.468 20.6479H135.222V16.3893H126.663V13.0433H134.55V8.78477H126.663V5.43877H135.26V1.18021H121.468V20.6479Z" fill="#FBFBF8"/>
<path d="M142.149 20.6479L143.251 16.9216H149.568L150.671 20.6479H156.277L149.961 1.18021H142.859L136.542 20.6479H142.149ZM144.429 12.9673L146.335 6.54143H146.485L148.391 12.9673H144.429Z" fill="#FBFBF8"/>
</g>
<path d="M94.4475 56.6647C94.4627 56.8818 94.4187 57.0774 94.3153 57.2515C94.2238 57.4119 94.1989 57.6062 94.2405 57.8343C94.0689 57.949 93.9314 58.0934 93.828 58.2675C93.7247 58.4416 93.6282 58.6216 93.5385 58.8076C92.7339 59.4157 91.8579 59.9198 90.9104 60.3198C89.9765 60.7316 88.9987 60.9733 87.9769 61.0447C87.913 61.0492 87.8533 61.0213 87.7978 60.961C87.7431 60.9135 87.688 60.8596 87.6324 60.7993C87.5769 60.739 87.5149 60.6791 87.4466 60.6197C87.392 60.5722 87.3263 60.5511 87.2497 60.5565C87.1603 60.5627 87.0914 60.5868 87.0429 60.6287C87.0412 60.6032 87.0394 60.5776 87.0376 60.5521C87.0495 60.5384 87.0545 60.5188 87.0527 60.4933C87.042 60.34 87.0117 60.1817 86.9618 60.0183C86.9127 59.8677 86.8828 59.7158 86.8721 59.5625C86.8596 59.3837 86.8813 59.2346 86.9371 59.1151L87.167 59.0991C87.2947 59.0901 87.4156 59.0753 87.5297 59.0545C87.6556 59.02 87.7889 58.9978 87.9293 58.988C88.0698 58.9782 88.2003 59.0076 88.3206 59.0762C89.0213 59.0015 89.6765 58.8273 90.2863 58.5537C90.908 58.2663 91.5365 57.9849 92.1718 57.7095C92.2641 57.5618 92.3109 57.4045 92.3121 57.2376C92.3251 57.057 92.3646 56.8874 92.4305 56.7287C92.0788 56.471 91.7251 56.2775 91.3695 56.1483C91.0258 56.0055 90.6322 55.9753 90.1888 56.0576C89.9089 55.9103 89.6149 55.8346 89.3065 55.8305C89.011 55.8255 88.7081 55.8082 88.398 55.7786C88.3205 55.7711 88.2366 55.7642 88.1463 55.7576C88.0678 55.7375 87.9839 55.7305 87.8945 55.7367C87.8307 55.7412 87.7681 55.7648 87.707 55.8076C87.6577 55.8367 87.648 55.8823 87.678 55.9444C87.607 55.8467 87.5136 55.7955 87.3977 55.7907C87.2938 55.7723 87.2008 55.7275 87.1188 55.6562C86.7083 55.6593 86.3457 55.614 86.0312 55.5205C85.7157 55.4142 85.3674 55.2974 84.9863 55.17C84.8814 55.1388 84.7774 55.1204 84.6744 55.1148C84.5832 55.0955 84.4911 55.0635 84.3981 55.0186C84.1601 54.9197 83.9642 54.7794 83.8103 54.5976C83.6564 54.4159 83.5331 54.2127 83.4404 53.9882C83.334 53.7518 83.2528 53.5072 83.1966 53.2544C83.1404 53.0016 83.0856 52.768 83.0321 52.5535C83.1327 52.3411 83.2265 52.1228 83.3135 51.8985C83.3878 51.6751 83.4483 51.4399 83.4952 51.1927C83.5692 51.149 83.6436 51.1117 83.7184 51.0808C83.7933 51.0499 83.8741 51.0122 83.9608 50.9676C83.9462 50.943 83.9376 50.9115 83.9349 50.8732C83.9305 50.8093 83.9452 50.7441 83.979 50.6776C84.0256 50.6101 84.0339 50.5454 84.0039 50.4833C84.2671 50.2082 84.517 49.9276 84.7537 49.6415C85.0023 49.3418 85.2107 49.0191 85.3791 48.6737C85.5662 48.5964 85.7128 48.4899 85.8188 48.3541C85.9248 48.2184 86.0309 48.0826 86.1369 47.9468C86.242 47.7983 86.3613 47.668 86.4946 47.556C86.6271 47.4312 86.801 47.3485 87.0163 47.3077C87.0612 47.2148 87.1265 47.1396 87.2123 47.0823C87.2973 47.0121 87.3827 46.9484 87.4685 46.8911C87.5543 46.8337 87.6333 46.7705 87.7055 46.7012C87.7777 46.632 87.8289 46.5386 87.8592 46.4209C88.0635 46.4067 88.2461 46.3554 88.4068 46.2671C88.5802 46.178 88.7468 46.0829 88.9066 45.9819C89.0664 45.8809 89.2267 45.7863 89.3873 45.698C89.5608 45.6089 89.7497 45.5571 89.9541 45.5429C90.0052 45.5393 90.0567 45.5421 90.1087 45.5513C90.1598 45.5477 90.2177 45.5501 90.2825 45.5584C90.3781 45.6416 90.4432 45.7461 90.4777 45.872C90.524 45.9843 90.5585 46.1103 90.5811 46.2499C90.6037 46.3895 90.6199 46.5295 90.6297 46.67C90.6523 46.8096 90.6868 46.9356 90.7332 47.0478C90.6334 47.273 90.5208 47.4991 90.3955 47.726C90.283 47.9521 90.1222 48.1302 89.9131 48.2603L89.8748 48.263C89.7862 48.2821 89.7019 48.2687 89.6217 48.223C89.5415 48.1772 89.4503 48.1579 89.3481 48.1651C89.2842 48.1696 89.2345 48.1923 89.1988 48.2333L89.1097 48.3358C89.086 48.3631 89.0494 48.3913 89.0001 48.4204C88.9636 48.4487 88.9061 48.4527 88.8277 48.4325C88.6534 48.5089 88.5907 48.6224 88.6397 48.7729C88.3988 48.8155 88.1998 48.9064 88.0427 49.0457C87.8847 49.1723 87.7408 49.3171 87.611 49.4802C87.4804 49.6305 87.3493 49.7745 87.2177 49.912C87.0852 50.0368 86.9236 50.1123 86.7329 50.1384C86.5426 50.5368 86.2981 50.894 85.9993 51.2101C85.7133 51.5253 85.481 51.8753 85.3026 52.26C85.348 52.3595 85.3812 52.4663 85.402 52.5803C85.4228 52.6944 85.4505 52.8144 85.4849 52.9403C85.6106 53.0856 85.7541 53.2103 85.9154 53.3145C86.0895 53.4179 86.2572 53.5217 86.4185 53.6259L86.476 53.6219C86.7314 53.604 86.9713 53.6386 87.1956 53.7256C87.419 53.7998 87.652 53.8284 87.8947 53.8115C88.0224 53.8025 88.1292 53.7694 88.215 53.7121C88.5525 53.7655 88.8826 53.8066 89.2055 53.8353C89.5412 53.8632 89.8759 53.8783 90.2098 53.8806C90.3776 53.8946 90.5446 53.8957 90.7106 53.8841C90.8894 53.8716 91.0568 53.8791 91.2128 53.9067C91.356 53.9352 91.5 53.9765 91.645 54.0305C91.7891 54.0718 91.9336 54.1195 92.0785 54.1735C92.3813 54.2807 92.6657 54.402 92.9319 54.5374C93.2108 54.6719 93.46 54.8406 93.6796 55.0434C93.8982 55.2335 94.0749 55.465 94.2095 55.738C94.3432 55.9982 94.4225 56.3071 94.4475 56.6647ZM110.012 45.6227C109.972 45.7924 109.9 45.9514 109.795 46.1L109.497 46.5251C109.404 46.66 109.324 46.8067 109.258 46.9653C109.204 47.1103 109.197 47.2777 109.236 47.4675C109.21 47.4693 109.178 47.4715 109.14 47.4742C109.101 47.4641 109.068 47.4599 109.043 47.4617C108.838 47.476 108.682 47.5383 108.575 47.6485C108.479 47.7451 108.344 47.8315 108.169 47.9079C108.138 47.833 108.101 47.765 108.059 47.7038C108.015 47.6299 107.954 47.5828 107.875 47.5626C107.573 47.6479 107.27 47.7204 106.967 47.7802C106.662 47.8272 106.358 47.8869 106.055 47.9595C105.916 47.9948 105.778 48.043 105.642 48.1039C105.504 48.152 105.36 48.2006 105.209 48.2497C105.134 48.2806 105.052 48.2991 104.963 48.3054C104.872 48.2989 104.783 48.3051 104.694 48.3241C104.389 48.3584 104.058 48.4071 103.703 48.4704C103.348 48.521 103.035 48.6391 102.766 48.8248C102.636 48.8082 102.501 48.7984 102.359 48.7955C102.218 48.7925 102.077 48.796 101.936 48.8058C101.63 48.8272 101.294 48.8828 100.928 48.9726C100.574 49.0487 100.262 49.1796 99.9925 49.3653C99.9268 49.3442 99.8552 49.3299 99.7777 49.3225C99.7129 49.3142 99.6359 49.3132 99.5464 49.3195C99.5209 49.3212 99.5022 49.329 99.4903 49.3426C99.4775 49.3435 99.4584 49.3449 99.4328 49.3466C99.4281 49.4625 99.4489 49.5766 99.4953 49.6888C99.5535 49.7874 99.6423 49.8647 99.7617 49.9205C99.7205 50.0646 99.7057 50.2196 99.7173 50.3857C99.7324 50.6028 99.7604 50.819 99.8011 51.0344C99.8546 51.2488 99.889 51.4646 99.9042 51.6818C99.9211 51.9244 99.9026 52.1183 99.8486 52.2632C100.003 52.6375 100.096 53.0417 100.126 53.476C100.137 53.6293 100.135 53.7834 100.12 53.9385C100.117 54.0799 100.121 54.2336 100.133 54.3997C100.143 54.5402 100.202 54.6515 100.31 54.7338C100.418 54.8033 100.476 54.9083 100.486 55.0488C100.49 55.0999 100.481 55.1519 100.459 55.2047C100.635 55.1539 100.804 55.0908 100.965 55.0153C101.126 54.927 101.296 54.8767 101.474 54.8642C101.577 54.857 101.674 54.8695 101.766 54.9015C101.871 54.9327 101.964 54.9776 102.045 55.0361C102.036 55.1008 102.029 55.172 102.021 55.2495C102.027 55.3261 102.032 55.4028 102.037 55.4794C102.047 55.6199 102.056 55.754 102.065 55.8817C102.086 55.9958 102.108 56.1226 102.13 56.2622C102.041 56.4482 101.931 56.6163 101.8 56.7667C101.682 56.9161 101.605 57.1012 101.569 57.3219C101.378 57.3353 101.208 57.392 101.061 57.4922C100.926 57.5786 100.798 57.6774 100.678 57.7885C100.556 57.8869 100.435 57.9852 100.313 58.0835C100.191 58.1691 100.053 58.2172 99.8999 58.228C99.7083 58.2414 99.5724 58.2252 99.4922 58.1795C99.4111 58.121 99.3491 58.0611 99.3063 57.9999C99.2635 57.9387 99.2212 57.8839 99.1793 57.8355C99.1502 57.7862 99.085 57.7715 98.9837 57.7915C98.9466 57.6272 98.8847 57.4775 98.7983 57.3424C98.7109 57.1944 98.6176 57.0534 98.5184 56.9191C98.4319 56.784 98.3391 56.6493 98.2399 56.515C98.1525 56.3671 98.0843 56.2179 98.0353 56.0673C97.9354 55.7406 97.8794 55.3979 97.8671 55.0394C97.8549 54.6809 97.7733 54.34 97.6224 54.0169C97.6354 53.8363 97.6421 53.6561 97.6423 53.4764C97.6417 53.2839 97.6351 53.0983 97.6226 52.9195C97.5976 52.5618 97.5603 52.2115 97.5106 51.8684C97.4729 51.5116 97.4346 51.1485 97.396 50.779C97.2985 50.6703 97.2321 50.5466 97.1967 50.4079C97.1732 50.2555 97.1502 50.1095 97.1276 49.9699C97.0866 49.9343 97.0392 49.8991 96.9854 49.8643C96.9444 49.8287 96.9153 49.7794 96.8981 49.7164C96.7941 49.698 96.7166 49.6906 96.6655 49.6942C96.4867 49.7067 96.3365 49.7621 96.2151 49.8604C96.1055 49.9451 95.9996 49.991 95.8974 49.9982C95.7952 50.0053 95.6985 49.9992 95.6073 49.98C95.5161 49.9607 95.4258 49.9541 95.3364 49.9604C95.2598 49.9658 95.2164 49.988 95.2063 50.0272C95.2081 50.0528 95.1844 50.0801 95.1351 50.1092C95.0985 50.1375 95.0109 50.1693 94.8722 50.2046C94.7335 50.24 94.5756 50.2767 94.3986 50.3148C94.2334 50.3391 94.0683 50.3635 93.9031 50.3879C93.7508 50.4114 93.649 50.4249 93.5979 50.4285C93.3936 50.4428 93.2376 50.4152 93.1301 50.3457C93.0089 50.2643 92.8681 50.1779 92.7076 50.0865C92.7278 50.008 92.737 49.9561 92.7352 49.9305C92.7263 49.8028 92.6808 49.7033 92.5989 49.632C92.516 49.548 92.4723 49.474 92.4678 49.4101C92.458 49.2696 92.5079 49.157 92.6175 49.0724C92.7143 48.9886 92.7633 48.8632 92.7645 48.6963C93.0493 48.548 93.3427 48.4312 93.6448 48.3459C93.9469 48.2606 94.2563 48.1877 94.5729 48.127C94.8895 48.0664 95.1993 47.9998 95.5023 47.9273C95.818 47.8538 96.1252 47.7489 96.4237 47.6126C96.514 47.6191 96.5979 47.626 96.6754 47.6335C96.7648 47.6272 96.8542 47.621 96.9436 47.6147C97.3268 47.5879 97.7009 47.5232 98.066 47.4207C98.4429 47.3045 98.8294 47.2326 99.2253 47.2049C99.3275 47.1977 99.4301 47.197 99.5332 47.2026C99.6363 47.2082 99.7398 47.2202 99.8438 47.2386C100.349 47.1263 100.848 47.008 101.34 46.8837C101.845 46.7586 102.363 46.6453 102.895 46.544C103.149 46.5006 103.396 46.464 103.638 46.4342C103.892 46.3908 104.145 46.341 104.398 46.2849C104.486 46.2658 104.549 46.2422 104.585 46.214C104.634 46.1721 104.654 46.1001 104.647 45.9979C104.766 46.0409 104.895 46.0575 105.036 46.0477C105.253 46.0325 105.461 45.9795 105.66 45.8885C105.859 45.7976 106.067 45.7446 106.284 45.7294C106.335 45.7258 106.38 45.7291 106.42 45.7392C106.458 45.7365 106.496 45.7338 106.535 45.7311C106.624 45.7249 106.666 45.6834 106.661 45.6068C106.667 45.5165 106.727 45.4546 106.84 45.421C106.928 45.3892 107.054 45.3611 107.219 45.3367C107.384 45.3123 107.556 45.2875 107.734 45.2622C107.924 45.2233 108.094 45.1857 108.246 45.1494C108.409 45.0995 108.527 45.0399 108.599 44.9707L108.719 44.7505C108.949 44.7472 109.122 44.8378 109.238 45.0223C109.366 45.193 109.443 45.3865 109.471 45.6028C109.526 45.6503 109.598 45.6709 109.687 45.6647C109.789 45.6448 109.878 45.6321 109.954 45.6268L110.012 45.6227ZM119.517 54.2186C119.48 54.4137 119.408 54.5792 119.302 54.7149C119.196 54.8507 119.07 54.975 118.924 55.0879C118.79 55.1999 118.644 55.3065 118.484 55.4075C118.323 55.4957 118.17 55.5963 118.024 55.7092L117.775 55.7266C117.238 55.7641 116.814 55.6654 116.503 55.4305C116.203 55.1819 115.963 54.8714 115.783 54.499C115.602 54.1137 115.457 53.7003 115.35 53.2586C115.254 52.816 115.143 52.4131 115.015 52.0498C114.87 52.1883 114.753 52.3505 114.664 52.5364C114.573 52.7096 114.476 52.8833 114.373 53.0573C114.282 53.2305 114.172 53.3923 114.041 53.5426C113.923 53.692 113.757 53.7999 113.544 53.8662C113.512 53.9583 113.473 54.0508 113.428 54.1438C113.396 54.2359 113.377 54.3334 113.372 54.4365C113.102 54.6094 112.859 54.8061 112.643 55.0266C112.427 55.247 112.212 55.4738 111.998 55.707C111.783 55.9402 111.561 56.1675 111.333 56.3888C111.116 56.5965 110.866 56.7745 110.581 56.9227C110.567 56.9109 110.541 56.9063 110.503 56.9089C110.35 56.9197 110.212 56.9678 110.089 57.0534C109.966 57.1262 109.828 57.1679 109.675 57.1786C109.572 57.1858 109.475 57.1733 109.383 57.1413C109.304 57.1083 109.218 57.0694 109.125 57.0246C109.045 56.9788 108.959 56.9463 108.868 56.927C108.776 56.9077 108.68 56.908 108.579 56.928C108.435 56.707 108.248 56.5083 108.017 56.3319C107.799 56.1418 107.655 55.9208 107.586 55.669C107.552 55.5558 107.525 55.4422 107.504 55.3281C107.495 55.2004 107.474 55.0736 107.439 54.9476C107.388 54.7587 107.323 54.5707 107.246 54.3836C107.168 54.1837 107.102 53.9829 107.05 53.7812C107.089 53.4319 107.127 53.0506 107.162 52.6374C107.184 52.2124 107.219 51.7928 107.267 51.3787C107.327 50.951 107.414 50.547 107.529 50.1667C107.655 49.7728 107.824 49.4337 108.035 49.1494L108.006 49.0167C107.992 48.8123 108.017 48.618 108.081 48.4339C108.145 48.2497 108.216 48.0714 108.294 47.8991C108.372 47.7269 108.437 47.5554 108.489 47.3849C108.541 47.2144 108.541 47.0283 108.489 46.8266C108.637 46.7393 108.792 46.6643 108.954 46.6016C109.117 46.5389 109.287 46.5013 109.466 46.4888C109.632 46.4771 109.787 46.492 109.931 46.5332C109.913 46.6372 109.962 46.6979 110.079 46.7155L110.083 46.7729C110.102 47.0412 110.088 47.3052 110.042 47.5651C109.996 47.8251 109.937 48.0859 109.866 48.3476C109.793 48.5965 109.721 48.8518 109.65 49.1135C109.59 49.3616 109.55 49.6147 109.53 49.8728C109.479 49.8891 109.443 49.9174 109.42 49.9575C109.41 49.9967 109.4 50.0359 109.39 50.0751C109.38 50.1143 109.363 50.1476 109.339 50.1749C109.315 50.2022 109.278 50.2177 109.227 50.2213C109.181 50.6737 109.129 51.1265 109.071 51.5798C109.025 52.0194 109.018 52.4628 109.049 52.9098C109.068 53.178 109.112 53.4509 109.183 53.7283C109.254 54.0057 109.368 54.2672 109.527 54.5129L109.602 54.4884C109.742 54.4785 109.853 54.5029 109.934 54.5614C110.028 54.619 110.148 54.6748 110.293 54.7288C110.393 54.6962 110.487 54.6575 110.573 54.613C110.659 54.5556 110.692 54.4699 110.671 54.3559C110.836 54.3315 110.974 54.2833 111.084 54.2114C111.194 54.1267 111.29 54.0366 111.373 53.9409L111.642 53.6526C111.738 53.556 111.855 53.4837 111.993 53.4356C111.987 53.3589 112.002 53.3001 112.038 53.2591L112.145 53.1361C112.181 53.0951 112.204 53.055 112.214 53.0158C112.236 52.9629 112.237 52.8922 112.218 52.8037C112.37 52.7802 112.483 52.7339 112.555 52.6646C112.64 52.5945 112.712 52.5189 112.77 52.4378C112.84 52.3431 112.904 52.2487 112.962 52.1549C113.02 52.061 113.097 51.9785 113.195 51.9075C113.271 51.7097 113.375 51.4458 113.505 51.1157C113.649 50.7848 113.786 50.4415 113.915 50.086C114.057 49.7295 114.174 49.394 114.268 49.0794C114.373 48.7511 114.42 48.504 114.409 48.3379C114.404 48.2741 114.381 48.2179 114.339 48.1695C114.31 48.1202 114.3 48.0632 114.308 47.9984L114.304 47.941C114.397 47.8061 114.477 47.6593 114.543 47.5007C114.621 47.3412 114.7 47.1881 114.78 47.0413C114.872 46.8937 114.972 46.7583 115.079 46.6353C115.186 46.5124 115.326 46.4127 115.501 46.3363C115.71 46.3859 115.917 46.4163 116.123 46.4276C116.342 46.4379 116.55 46.4747 116.747 46.538C116.782 46.8564 116.84 47.2245 116.921 47.6425C117.001 48.0604 117.116 48.4118 117.264 48.6966C117.275 48.8627 117.28 49.0228 117.278 49.1769C117.289 49.3302 117.3 49.4835 117.31 49.6367C117.328 49.8922 117.353 50.1536 117.384 50.4209C117.429 50.6874 117.491 50.9333 117.571 51.1587C117.495 51.3566 117.464 51.5641 117.48 51.7812C117.5 52.075 117.564 52.3528 117.673 52.6148C117.78 52.864 117.863 53.1342 117.922 53.4253C118.104 53.6436 118.329 53.7433 118.597 53.7246C118.661 53.7201 118.712 53.7101 118.749 53.6947C118.799 53.6783 118.849 53.6556 118.898 53.6265C119.009 53.7343 119.106 53.843 119.191 53.9526C119.287 54.0485 119.396 54.1372 119.517 54.2186ZM132.189 46.9599C132.198 47.0876 132.159 47.1737 132.072 47.2183C131.985 47.2629 131.946 47.3426 131.954 47.4576C131.957 47.4959 131.972 47.527 131.999 47.5507C132.026 47.5745 132.042 47.6119 132.045 47.663L132.051 47.7396C131.949 48.4912 131.771 49.1518 131.515 49.7216C131.273 50.2904 130.976 50.8182 130.625 51.3048C130.274 51.7914 129.87 52.256 129.413 52.6987C128.969 53.1405 128.488 53.6041 127.97 54.0895C127.826 54.228 127.675 54.3669 127.518 54.5062C127.374 54.6446 127.236 54.789 127.106 54.9394L126.712 55.3712C126.7 55.3848 126.632 55.4217 126.508 55.4817C126.383 55.5289 126.308 55.5599 126.284 55.5744C126.11 55.6636 125.925 55.7664 125.728 55.8828C125.543 55.9984 125.386 56.1377 125.256 56.3008C125.001 56.3187 124.786 56.3722 124.613 56.4613C124.44 56.5505 124.249 56.6665 124.04 56.8094C123.977 56.8139 123.918 56.8051 123.865 56.7832C123.825 56.7603 123.779 56.7379 123.726 56.7159C123.673 56.6939 123.615 56.6852 123.551 56.6896C123.499 56.6804 123.429 56.6917 123.341 56.7235C123.17 56.4788 122.989 56.2733 122.798 56.107C122.606 55.9407 122.356 55.8491 122.047 55.8322C121.993 55.6177 121.892 55.4579 121.744 55.3528C121.594 55.2349 121.445 55.1106 121.294 54.9799C121.263 54.9051 121.238 54.817 121.218 54.7157C121.198 54.6144 121.166 54.5204 121.121 54.4337C121.077 54.347 121.02 54.2739 120.952 54.2145C120.884 54.1551 120.792 54.1294 120.677 54.1375C120.659 54.0617 120.688 54.0212 120.765 54.0158C120.841 54.0105 120.877 53.9758 120.873 53.912C120.868 53.8354 120.849 53.7596 120.819 53.6848C120.788 53.6099 120.769 53.5278 120.763 53.4384C120.758 53.3745 120.761 53.3166 120.77 53.2646C120.779 53.2126 120.794 53.1538 120.815 53.0882C120.753 52.746 120.709 52.3961 120.684 52.0384C120.636 51.3487 120.633 50.6686 120.676 49.9982C120.731 49.3141 120.734 48.6272 120.686 47.9375C120.665 47.6309 120.624 47.3257 120.564 47.0219C120.517 46.7171 120.439 46.421 120.329 46.1335C120.04 46.2179 119.751 46.315 119.464 46.425C119.175 46.5222 118.908 46.6499 118.663 46.8083C118.516 46.7287 118.366 46.6879 118.211 46.6858C118.044 46.6719 117.881 46.6448 117.724 46.6044C117.622 46.4318 117.565 46.2497 117.551 46.0581C117.539 45.8793 117.559 45.7047 117.611 45.5342L117.768 45.0226C118.07 44.9373 118.37 44.8201 118.667 44.6709C118.952 44.5227 119.244 44.3867 119.544 44.2631C119.644 44.2304 119.77 44.1896 119.92 44.1405C120.084 44.0906 120.196 44.0506 120.258 44.0206C120.345 43.976 120.398 43.9018 120.416 43.7978C120.446 43.6802 120.491 43.5808 120.549 43.4997L120.875 43.4769C120.952 43.4716 121.035 43.4722 121.125 43.4787C121.215 43.4724 121.299 43.4858 121.378 43.5187C121.83 43.3716 122.285 43.2692 122.743 43.2115C123.2 43.1411 123.669 43.0569 124.15 42.9591C124.201 42.9555 124.277 42.9438 124.379 42.9239L124.7 42.8436C124.814 42.81 124.914 42.7837 125.003 42.7647C125.103 42.732 125.173 42.7143 125.211 42.7117C125.249 42.709 125.27 42.7268 125.272 42.7651L125.598 42.7423C126.147 42.7039 126.689 42.7367 127.222 42.8406L128.823 43.1522C129.052 43.3158 129.282 43.4731 129.51 43.6239C129.739 43.7748 129.992 43.9047 130.269 44.0137C130.347 44.2136 130.455 44.3729 130.591 44.4917C130.74 44.5968 130.902 44.7139 131.078 44.8427C131.153 45.0043 131.249 45.1773 131.365 45.3618C131.492 45.5326 131.614 45.7102 131.729 45.8946C131.845 46.0791 131.948 46.2644 132.038 46.4506C132.127 46.6241 132.177 46.7938 132.189 46.9599ZM130.427 47.3719C130.266 47.0879 130.11 46.7907 129.96 46.4804C129.81 46.17 129.631 45.8938 129.421 45.6517C129.187 45.6039 128.945 45.5438 128.696 45.4714C128.459 45.3853 128.287 45.224 128.181 44.9876C128.156 45.0021 128.112 45.0116 128.048 45.0161C127.933 45.0241 127.828 44.9866 127.732 44.9034C127.637 44.8203 127.53 44.7699 127.414 44.7524C127.311 44.7468 127.169 44.7375 126.988 44.7244C126.82 44.7105 126.64 44.7038 126.448 44.7045C126.255 44.7051 126.063 44.7057 125.87 44.7063C125.691 44.7061 125.55 44.7095 125.447 44.7166C125.345 44.7238 125.237 44.7378 125.123 44.7586C125.021 44.7657 124.913 44.7797 124.799 44.8005C124.697 44.8077 124.634 44.8313 124.611 44.8714C124.587 44.8987 124.538 44.9278 124.463 44.9587C124.398 44.9377 124.326 44.9298 124.25 44.9352L124.02 44.9512C123.752 44.97 123.487 45.0335 123.225 45.1416C122.975 45.2361 122.727 45.3625 122.481 45.5209L122.486 45.5975C122.494 45.6997 122.542 45.7541 122.633 45.7606C122.723 45.7671 122.778 45.8146 122.797 45.9032C122.733 45.9076 122.682 45.9176 122.645 45.933C122.606 45.9357 122.59 45.9818 122.597 46.0712C122.605 46.1989 122.628 46.3385 122.664 46.49C122.713 46.6406 122.743 46.7925 122.754 46.9458C122.762 47.0607 122.759 47.1957 122.744 47.3508C122.729 47.5059 122.674 47.6317 122.578 47.7282C122.713 47.8342 122.788 47.983 122.801 48.1746C122.81 48.3024 122.794 48.4383 122.753 48.5823C122.712 48.7264 122.656 48.8522 122.587 48.9597C122.599 49.498 122.586 50.0444 122.547 50.599C122.509 51.1536 122.509 51.6991 122.546 52.2355C122.565 52.5037 122.596 52.7647 122.639 53.0184C122.696 53.2711 122.771 53.5226 122.866 53.7727C123.016 53.9033 123.17 54.0016 123.329 54.0675C123.5 54.1326 123.678 54.1971 123.862 54.2613L123.866 54.3188C123.869 54.3571 123.846 54.3972 123.798 54.4391C123.749 54.481 123.727 54.5338 123.732 54.5977C123.735 54.6488 123.763 54.6725 123.814 54.669C124.34 54.4782 124.831 54.2577 125.289 54.0075C125.746 53.7573 126.166 53.4328 126.549 53.0338C126.584 52.9928 126.621 52.9709 126.66 52.9683C126.685 52.9665 126.718 52.9706 126.757 52.9807C126.809 52.9899 126.854 52.9996 126.894 53.0097L126.869 52.9344C126.864 52.8577 126.878 52.7861 126.912 52.7196C126.959 52.6522 127.012 52.5907 127.072 52.5351L127.252 52.3493C127.311 52.281 127.358 52.2135 127.392 52.147C127.492 52.1143 127.559 52.0583 127.592 51.979C127.637 51.8988 127.718 51.8546 127.833 51.8466C127.848 51.7043 127.912 51.5972 128.022 51.5253C128.132 51.4406 128.194 51.3272 128.21 51.1849C128.456 51.0265 128.667 50.8385 128.844 50.6207C129.035 50.402 129.205 50.172 129.355 49.9304C129.517 49.688 129.667 49.4401 129.803 49.1867C129.938 48.9206 130.081 48.6667 130.231 48.4252L130.226 48.3486C130.211 48.1442 130.232 47.9759 130.287 47.8437C130.354 47.7106 130.401 47.5533 130.427 47.3719ZM137.255 53.4596C137.198 53.5662 137.128 53.6674 137.045 53.763C136.961 53.8459 136.884 53.9347 136.813 54.0295C136.726 54.0741 136.626 54.1004 136.511 54.1084C136.408 54.1156 136.306 54.1227 136.204 54.1299C136.114 54.1233 136.024 54.1296 135.936 54.1486C135.859 54.154 135.797 54.184 135.75 54.2386C135.646 54.2202 135.566 54.1809 135.51 54.1206C135.454 54.0475 135.361 54.0091 135.233 54.0053C135.181 53.9961 135.13 53.9996 135.079 54.016C134.873 53.8122 134.678 53.5948 134.495 53.3638C134.325 53.1318 134.162 52.9122 134.006 52.7049C133.96 52.2332 133.888 51.7569 133.79 51.276C133.77 51.1619 133.742 51.0483 133.709 50.9351C133.675 50.822 133.649 50.7147 133.629 50.6134C133.62 50.4857 133.618 50.3639 133.622 50.2481C133.639 50.1186 133.65 50.0023 133.656 49.8992C133.681 49.5252 133.713 49.1572 133.752 48.7951C133.791 48.433 133.823 48.065 133.848 47.691C133.876 47.3553 133.877 47.0087 133.852 46.651C133.826 46.2806 133.745 45.9398 133.607 45.6285L133.581 45.5341C133.6 45.4301 133.62 45.3453 133.641 45.2796C133.674 45.2003 133.693 45.1155 133.7 45.0252C133.716 44.8829 133.677 44.783 133.583 44.7254C133.614 44.6205 133.673 44.5522 133.761 44.5204C133.848 44.4758 133.893 44.3956 133.898 44.2797C133.907 44.2278 133.904 44.1767 133.887 44.1265C133.987 44.081 134.087 44.0419 134.187 44.0092C134.299 43.9629 134.408 43.9489 134.512 43.9673C134.679 43.9812 134.83 44.0284 134.964 44.1089C135.097 44.1766 135.225 44.2576 135.347 44.3517C135.594 44.9505 135.723 45.5961 135.733 46.2885C135.742 46.9681 135.726 47.6559 135.685 48.3519C135.643 49.0479 135.633 49.7288 135.654 50.3948C135.674 51.048 135.819 51.6475 136.088 52.1935L136.128 52.2099C136.192 52.2183 136.242 52.1955 136.277 52.1418C136.311 52.0752 136.36 52.0461 136.425 52.0544C136.478 52.0764 136.51 52.0869 136.523 52.086C136.592 52.3379 136.692 52.5748 136.823 52.7966C136.954 53.0185 137.098 53.2395 137.255 53.4596ZM150.218 44.0434C150.149 44.1637 150.113 44.2946 150.11 44.436C150.107 44.5774 150.11 44.7056 150.118 44.8205C150.129 44.9738 150.14 45.1271 150.15 45.2803C150.173 45.4199 150.189 45.56 150.199 45.7005L150.219 45.9879C150.2 46.0791 150.168 46.1711 150.123 46.2641C150.078 46.3571 150.046 46.4492 150.027 46.5404C149.881 47.0255 149.824 47.5043 149.857 47.9769L149.86 48.0152C149.807 48.173 149.753 48.3179 149.698 48.4501C149.656 48.5814 149.614 48.7127 149.572 48.844C149.529 48.9625 149.499 49.0929 149.483 49.2352C149.467 49.3647 149.471 49.5185 149.496 49.6964C149.349 50.1559 149.141 50.5812 148.873 50.9721C148.605 51.3503 148.343 51.7408 148.089 52.1436C147.828 52.2646 147.588 52.4161 147.37 52.5982C147.164 52.7795 146.966 52.9794 146.776 53.198C146.389 53.3535 146.01 53.5276 145.638 53.7204C145.267 53.9133 144.938 54.1609 144.651 54.4633C144.41 54.5058 144.17 54.5611 143.931 54.6292C143.692 54.6973 143.461 54.7904 143.238 54.9087L143.008 54.9247C142.893 54.9328 142.808 54.913 142.754 54.8655C142.594 54.9665 142.426 55.0425 142.25 55.0933C142.073 55.1313 141.895 55.1566 141.716 55.1691C141.486 55.1852 141.255 55.1885 141.024 55.179C140.804 55.1559 140.578 55.1332 140.345 55.111C140.205 54.9411 140.017 54.8195 139.78 54.7461C139.543 54.66 139.332 54.5785 139.147 54.5016C138.741 54.0166 138.438 53.5436 138.239 53.0827C138.039 52.6089 137.829 52.0781 137.608 51.4903C137.621 51.3097 137.654 51.1342 137.706 50.9637C137.758 50.7804 137.77 50.587 137.743 50.3835C137.926 49.7033 138.184 49.082 138.517 48.5196C138.862 47.9436 139.26 47.3896 139.71 46.8575C139.705 46.7808 139.713 46.7161 139.735 46.6632C139.77 46.6094 139.771 46.5324 139.738 46.432C139.752 46.4438 139.778 46.4484 139.816 46.4458C139.918 46.4386 139.98 46.4086 140.002 46.3557C140.023 46.2901 140.025 46.2194 140.007 46.1436C140.446 45.8177 140.837 45.4502 141.181 45.0411C141.537 44.6312 141.949 44.2815 142.417 43.9921C142.447 43.8745 142.504 43.7742 142.588 43.6913C142.672 43.6084 142.736 43.5141 142.78 43.4083C143.181 43.2648 143.539 43.0665 143.855 42.8134C144.171 42.5602 144.508 42.3313 144.866 42.1266C145.063 41.9973 145.249 41.9073 145.425 41.8565C145.613 41.792 145.814 41.7266 146.027 41.6603C146.102 41.6294 146.171 41.6054 146.234 41.5881C146.297 41.5709 146.367 41.5596 146.443 41.5542C146.673 41.5382 146.9 41.5672 147.123 41.6415C147.346 41.7029 147.572 41.7256 147.802 41.7095C147.866 41.7051 147.917 41.7015 147.955 41.6988C148.005 41.6825 148.056 41.6661 148.106 41.6498C148.342 41.9028 148.631 42.088 148.973 42.2052C149.063 42.3915 149.164 42.5513 149.276 42.6846C149.4 42.8171 149.525 42.9495 149.65 43.082C149.774 43.2017 149.886 43.3414 149.987 43.5012C150.1 43.6473 150.177 43.8281 150.218 44.0434ZM148.372 45.1737C148.367 45.1098 148.357 45.0528 148.34 45.0026C148.21 44.9732 148.085 44.9306 147.966 44.8748C147.846 44.8189 147.716 44.7959 147.576 44.8058C147.486 44.812 147.398 44.8374 147.311 44.882C147.292 44.7935 147.25 44.7323 147.183 44.6984C147.129 44.6637 147.063 44.6362 146.985 44.616C146.918 44.5822 146.846 44.5616 146.769 44.5541C146.703 44.5331 146.643 44.4988 146.588 44.4513C146.543 44.3517 146.491 44.2527 146.433 44.1541C146.386 44.0418 146.304 43.9641 146.185 43.9211C146.078 44.0441 145.951 44.1493 145.803 44.2366C145.654 44.3112 145.499 44.3862 145.338 44.4617C145.189 44.5363 145.041 44.6236 144.894 44.7238C144.76 44.823 144.646 44.94 144.553 45.0749L144.208 45.099C144.141 45.2449 144.04 45.361 143.905 45.4475C143.769 45.5212 143.654 45.6255 143.561 45.7603C143.364 45.8768 143.181 46.0179 143.013 46.1837C142.857 46.3358 142.701 46.5007 142.547 46.6784C142.392 46.8432 142.237 47.0145 142.082 47.1922C141.941 47.3689 141.785 47.5338 141.616 47.6868C141.475 48.0561 141.312 48.3819 141.126 48.6645C140.953 48.9333 140.786 49.2081 140.626 49.4888C140.478 49.7687 140.352 50.0727 140.247 50.401C140.153 50.7155 140.122 51.1027 140.155 51.5625L140.168 51.7541C140.172 51.818 140.183 51.8814 140.201 51.9444C140.379 52.1116 140.527 52.2938 140.643 52.491C140.772 52.6873 140.968 52.8213 141.23 52.8928C141.492 52.9771 141.763 53.0031 142.044 52.9707C142.336 52.9374 142.62 52.9496 142.893 53.0075C143.498 52.8497 144.073 52.6234 144.617 52.3287C145.173 52.0202 145.694 51.663 146.179 51.2568C146.251 51.1876 146.336 51.1175 146.433 51.0465C146.53 50.9627 146.608 50.8803 146.666 50.7992C146.726 50.7308 146.772 50.657 146.805 50.5777C146.851 50.4975 146.897 50.4237 146.943 50.3562C147.034 50.183 147.137 50.009 147.253 49.834C147.37 49.659 147.493 49.4964 147.624 49.346C147.668 49.0606 147.732 48.7865 147.816 48.5239C147.9 48.2486 147.984 47.9796 148.068 47.717C148.152 47.4544 148.217 47.1867 148.262 46.9141C148.32 46.6405 148.339 46.3568 148.318 46.063C148.314 45.9992 148.302 45.9294 148.284 45.8536C148.279 45.777 148.268 45.7072 148.25 45.6442C148.343 45.4966 148.383 45.3397 148.372 45.1737Z" fill="#FBFBF8"/>
<defs>
<clipPath id="clip0">
<rect width="164" height="20" fill="white" transform="translate(0 0.914062)"/>
</clipPath>
</defs>
</svg>
