<svg width="78" height="80" viewBox="0 0 78 80" fill="none" xmlns="http://www.w3.org/2000/svg">
<g clip-path="url(#clip0)">
<path d="M39.0111 79.0658L38.6069 74.4502L40.23 74.306C40.4782 74.2839 40.7134 74.288 40.9356 74.3182C41.1577 74.3484 41.3547 74.4141 41.5264 74.5153C41.6981 74.6166 41.8392 74.7586 41.9496 74.9415C42.06 75.1243 42.1274 75.3549 42.1518 75.6334C42.1754 75.9024 42.1478 76.1402 42.0691 76.347C41.9905 76.5537 41.8747 76.7281 41.722 76.8701C41.5692 77.0121 41.3877 77.1234 41.1776 77.2039C40.9675 77.2844 40.7407 77.3354 40.4971 77.3571L39.9069 77.4095L40.0439 78.974L39.0111 79.0658ZM39.8344 76.5813L40.3614 76.5344C40.9235 76.4845 41.183 76.2141 41.14 75.7233C41.119 75.4826 41.0327 75.319 40.8811 75.2326C40.7296 75.1462 40.5156 75.1153 40.2393 75.1399L39.7123 75.1867L39.8344 76.5813ZM45.8728 78.3657L44.6611 73.8959L46.2329 73.4634C46.4688 73.3985 46.6961 73.3605 46.9149 73.3494C47.1337 73.3383 47.3359 73.3649 47.5215 73.4293C47.7071 73.4936 47.8694 73.6024 48.0084 73.7557C48.1475 73.909 48.2529 74.1181 48.3248 74.3832C48.414 74.7123 48.4148 75.0031 48.3273 75.2555C48.2397 75.508 48.0923 75.7192 47.8849 75.8893L49.3701 77.4033L48.2474 77.7123L46.9602 76.3353L46.4363 76.4794L46.873 78.0905L45.8728 78.3657ZM46.2188 75.6773L46.7087 75.5425C47.2485 75.394 47.4584 75.0981 47.3382 74.6547C47.2787 74.4353 47.1692 74.301 47.0095 74.2516C46.8499 74.2022 46.6363 74.2143 46.3687 74.288L45.8788 74.4228L46.2188 75.6773ZM52.6693 76.3729L50.6841 72.1933L53.4326 70.868L53.8102 71.6629L52.0033 72.5342L52.4021 73.3739L53.9355 72.6346L54.31 73.4231L52.7767 74.1624L53.2334 75.1239L55.1039 74.222L55.4815 75.0169L52.6693 76.3729ZM59.549 72.7615L55.7328 69.8212L56.6254 69.173L58.3255 70.6015C58.4626 70.7121 58.5946 70.822 58.7216 70.931L58.9081 71.0938C59.0908 71.2561 59.2831 71.4216 59.485 71.5903L59.5079 71.5737C59.4471 71.4076 59.3858 71.2464 59.3242 71.09L59.138 70.6285L58.136 68.076L58.9943 67.4526L60.5618 72.026L59.549 72.7615ZM67.6264 63.741L66.9765 63.3012L69.3364 59.7617L69.9863 60.2015L67.6264 63.741ZM75.5619 51.8129L71.0878 50.7408L71.4649 49.1437C71.5225 48.8994 71.6007 48.6758 71.6993 48.473C71.7979 48.2702 71.922 48.1027 72.0717 47.9705C72.2213 47.8384 72.3996 47.7484 72.6066 47.7006C72.8137 47.6528 73.0521 47.6613 73.3221 47.726C73.5828 47.7885 73.7981 47.89 73.9679 48.0305C74.1378 48.171 74.2654 48.3367 74.3508 48.5277C74.4363 48.7186 74.4837 48.9272 74.4931 49.1535C74.5025 49.3797 74.479 49.6127 74.4224 49.8524L74.2853 50.4332L75.8018 50.7966L75.5619 51.8129ZM73.4824 50.2408L73.6048 49.7222C73.7354 49.1691 73.5628 48.8356 73.087 48.7216C72.8537 48.6656 72.6724 48.6965 72.5432 48.814C72.4139 48.9316 72.3172 49.1263 72.253 49.3983L72.1306 49.9168L73.4824 50.2408ZM77.0718 45.0312L72.48 44.7765L72.5695 43.1373C72.583 42.8913 72.619 42.662 72.6777 42.4494C72.7365 42.2367 72.8254 42.0519 72.9447 41.8948C73.0639 41.7377 73.2177 41.6169 73.406 41.5325C73.5943 41.448 73.8246 41.4133 74.0969 41.4284C74.435 41.4472 74.709 41.5383 74.9191 41.7018C75.1291 41.8653 75.2814 42.073 75.376 42.325L77.2711 41.3839L77.2071 42.5547L75.5036 43.3499L75.4738 43.8963L77.1288 43.9881L77.0718 45.0312ZM74.6498 43.8506L74.6777 43.3396C74.7085 42.7767 74.4961 42.4826 74.0407 42.4573C73.8153 42.4448 73.6541 42.5071 73.5572 42.644C73.4602 42.781 73.4041 42.9891 73.3889 43.2682L73.3609 43.7791L74.6498 43.8506ZM77.3495 37.908L72.7842 38.4669L72.4167 35.4193L73.2849 35.313L73.5265 37.3165L74.4438 37.2042L74.2387 35.504L75.1 35.3986L75.305 37.0988L76.3553 36.9702L76.1052 34.8961L76.9734 34.7898L77.3495 37.908ZM76.1468 30.1739L72.164 32.8807L71.8389 31.8216L73.7247 30.6536C73.8726 30.5579 74.018 30.4669 74.161 30.3804L74.3737 30.2542C74.5846 30.1315 74.8016 30.0006 75.0247 29.8616L75.0163 29.8345C74.8407 29.8396 74.6695 29.8467 74.5028 29.8557L73.7565 29.9006L71.2886 30.0292L70.9759 29.0109L75.7779 28.9723L76.1468 30.1739ZM70.2307 19.6083L69.611 20.0903L67.0247 16.7152L67.6444 16.2331L70.2307 19.6083ZM61.5123 8.23657L59.0756 12.1662L57.6938 11.2964C57.4824 11.1633 57.2971 11.0173 57.1378 10.8584C56.9785 10.6995 56.8606 10.5275 56.7841 10.3425C56.7075 10.1574 56.6798 9.95843 56.701 9.74549C56.7221 9.53255 56.8062 9.30755 56.9532 9.07049C57.0952 8.84146 57.2594 8.6683 57.4458 8.551C57.6322 8.43371 57.8288 8.36475 58.0357 8.34412C58.2425 8.3235 58.4539 8.34481 58.6697 8.40805C58.8856 8.47129 59.0972 8.56818 59.3045 8.69872L59.807 9.01502L60.633 7.68304L61.5123 8.23657ZM59.3698 9.72019L58.9211 9.43777C58.4425 9.13653 58.0737 9.19485 57.8146 9.61272C57.6875 9.81764 57.6586 10.0006 57.728 10.1615C57.7973 10.3225 57.9496 10.477 58.1849 10.6251L58.6335 10.9075L59.3698 9.72019ZM55.6196 4.63194L53.9154 8.93557L52.402 8.32721C52.1749 8.23591 51.9707 8.12832 51.7894 8.00443C51.6081 7.88054 51.4626 7.7366 51.3529 7.57262C51.2432 7.40863 51.1786 7.22328 51.1592 7.01655C51.1398 6.80981 51.1807 6.57884 51.2817 6.32361C51.4072 6.00678 51.5803 5.77414 51.8011 5.62571C52.0219 5.47727 52.2659 5.39809 52.5331 5.38818L52.2523 3.27827L53.3332 3.71281L53.5379 5.59317L54.0423 5.79595L54.6566 4.2448L55.6196 4.63194ZM53.7365 6.56823L53.2648 6.37861C52.7451 6.16968 52.4007 6.27864 52.2317 6.70548C52.148 6.9167 52.1552 7.09045 52.2531 7.22673C52.351 7.36301 52.5288 7.48295 52.7865 7.58653L53.2582 7.77615L53.7365 6.56823ZM49.005 2.0987L48.091 6.63979L45.1047 6.02962L45.2785 5.16598L47.2417 5.56711L47.4254 4.65471L45.7594 4.31431L45.9318 3.45763L47.5978 3.79803L47.8081 2.7533L45.7757 2.33804L45.9496 1.4744L49.005 2.0987ZM41.3409 0.803766L42.6264 5.4677L41.5263 5.4427L41.0247 3.27032C40.9815 3.09873 40.9419 2.93092 40.9058 2.76687L40.8544 2.52362C40.8057 2.28319 40.7513 2.03434 40.6912 1.77707L40.663 1.77643C40.6122 1.94588 40.5646 2.11171 40.5202 2.27393L40.3926 2.7552L39.6647 5.40037L38.6069 5.37633L40.0928 0.775391L41.3409 0.803766ZM29.5125 3.08974L29.7688 3.83513L25.7698 5.23073L25.5136 4.48535L29.5125 3.08974ZM16.0486 7.80612L18.9778 11.3782L17.7217 12.4238C17.5296 12.5837 17.3335 12.7147 17.1335 12.8167C16.9335 12.9186 16.7342 12.9769 16.5358 12.9916C16.3373 13.0062 16.1412 12.9697 15.9474 12.8821C15.7536 12.7946 15.5684 12.643 15.3917 12.4276C15.2209 12.2194 15.1098 12.0076 15.0584 11.7924C15.0069 11.5771 15.0041 11.3674 15.0502 11.1631C15.0962 10.9589 15.1831 10.7636 15.3109 10.5773C15.4387 10.391 15.5969 10.2194 15.7854 10.0625L16.2421 9.68229L15.2493 8.47152L16.0486 7.80612ZM16.7678 10.3233L16.3599 10.6628C15.9249 11.0249 15.8632 11.3959 16.1747 11.7757C16.3274 11.962 16.4905 12.0475 16.664 12.0321C16.8374 12.0168 17.0311 11.9201 17.245 11.7421L17.6528 11.4026L16.7678 10.3233ZM10.789 12.2974L14.2974 15.2931L13.244 16.5455C13.0859 16.7334 12.9197 16.8943 12.7455 17.0281C12.5713 17.1619 12.3896 17.2552 12.2004 17.3079C12.0112 17.3606 11.8163 17.3634 11.6156 17.3162C11.4149 17.2691 11.2105 17.1566 11.0024 16.979C10.7441 16.7584 10.5802 16.5191 10.5107 16.261C10.4412 16.0029 10.4442 15.7447 10.5198 15.4863L8.445 15.0841L9.19744 14.1895L11.032 14.5915L11.3831 14.1741L10.1186 13.0943L10.789 12.2974ZM12.0127 14.7116L11.6844 15.102C11.3226 15.5321 11.3157 15.8957 11.6637 16.1929C11.8359 16.3399 12.0016 16.3883 12.161 16.338C12.3204 16.2878 12.4897 16.1561 12.6691 15.9428L12.9974 15.5525L12.0127 14.7116ZM6.29829 17.814L10.2772 20.1374L8.74933 22.7936L7.9926 22.3517L8.99704 20.6055L8.1976 20.1387L7.34523 21.6205L6.59461 21.1822L7.44697 19.7004L6.53158 19.1659L5.49177 20.9736L4.73504 20.5317L6.29829 17.814ZM2.63909 24.7086L7.43653 24.9648L7.06299 26.0076L4.85931 25.7955C4.68412 25.7822 4.51361 25.7666 4.34778 25.7489L4.10255 25.7206C3.86083 25.6906 3.60937 25.6634 3.34818 25.6389L3.3386 25.6656C3.48187 25.7681 3.62276 25.8664 3.76127 25.9604L4.17351 26.2354L6.43084 27.7723L6.07166 28.775L2.21526 25.8918L2.63909 24.7086ZM1.04272 36.7417L1.82562 36.7339L1.86749 40.9977L1.0846 41.0055L1.04272 36.7417ZM1.19154 51.1138L5.48451 49.4522L6.06879 50.9847C6.15816 51.2191 6.21901 51.448 6.25133 51.6715C6.28365 51.895 6.27512 52.1038 6.22575 52.298C6.17638 52.4923 6.07967 52.668 5.93562 52.8252C5.79157 52.9825 5.59005 53.1113 5.33107 53.2115C5.08086 53.3083 4.8463 53.3471 4.62737 53.3278C4.40844 53.3085 4.21021 53.2444 4.03267 53.1354C3.85513 53.0265 3.69905 52.8814 3.56442 52.7C3.42979 52.5187 3.31863 52.313 3.23095 52.083L3.01848 51.5258L1.56335 52.089L1.19154 51.1138ZM3.78885 51.2276L3.97855 51.7251C4.1809 52.2559 4.51033 52.4329 4.96684 52.2562C5.19071 52.1695 5.32302 52.0409 5.36377 51.8704C5.40452 51.6998 5.37515 51.4841 5.27566 51.2231L5.08596 50.7256L3.78885 51.2276ZM3.74419 57.5605L7.67485 55.1551L8.52066 56.5583C8.64759 56.7688 8.74649 56.9785 8.81737 57.1874C8.88824 57.3962 8.91857 57.5994 8.90833 57.7969C8.8981 57.9944 8.83902 58.1816 8.7311 58.3585C8.62317 58.5354 8.45266 58.6952 8.21955 58.8378C7.93018 59.0149 7.65299 59.0958 7.38799 59.0806C7.12299 59.0654 6.88081 58.9808 6.66144 58.8268L5.62621 60.6826L5.02206 59.6803L5.98109 58.0541L5.69916 57.5864L4.28243 58.4534L3.74419 57.5605ZM6.4045 57.1548L6.66813 57.5921C6.95862 58.074 7.29878 58.1957 7.68863 57.9571C7.88155 57.839 7.97957 57.6959 7.9827 57.5277C7.98583 57.3595 7.91539 57.1559 7.77137 56.917L7.50774 56.4797L6.4045 57.1548ZM7.51562 63.5963L10.9623 60.5287L12.9796 62.8296L12.3241 63.4131L10.9979 61.9004L10.3054 62.5167L11.4308 63.8004L10.7806 64.3791L9.65518 63.0954L8.86223 63.8012L10.2351 65.3671L9.57961 65.9505L7.51562 63.5963ZM12.8522 69.284L14.6197 64.7831L15.482 65.4717L14.5813 67.5091C14.5131 67.6722 14.4442 67.8301 14.3747 67.9829L14.27 68.2081C14.1649 68.4295 14.0593 68.661 13.9532 68.9027L13.9753 68.9204C14.1173 68.8161 14.2545 68.7128 14.3871 68.6104L14.5823 68.4575C14.7102 68.356 14.8419 68.253 14.9775 68.1484L16.9414 66.637L17.7705 67.2991L13.8307 70.0653L12.8522 69.284ZM23.6605 74.644L23.9014 73.8934L27.9282 75.2055L27.6873 75.956L23.6605 74.644Z" fill="#242424"/>
</g>
<defs>
<clipPath id="clip0">
<rect width="76.7914" height="78.517" fill="white" transform="translate(0.655762 0.595703)"/>
</clipPath>
</defs>
</svg>
