<svg width="47" height="30" viewBox="0 0 47 30" fill="none" xmlns="http://www.w3.org/2000/svg">
<path d="M45.797 14.8928H1.91113M45.797 14.8928C45.797 18.6306 43.4045 22.0191 39.5245 24.4928M45.797 14.8928C45.797 11.155 43.4045 7.76649 39.5245 5.29277M23.8541 28.6071C29.9134 28.6071 34.8255 22.467 34.8255 14.8928C34.8255 7.31858 29.9134 1.17847 23.8541 1.17847M23.8541 28.6071C17.7947 28.6071 12.8826 22.467 12.8826 14.8928C12.8826 7.31858 17.7947 1.17847 23.8541 1.17847M23.8541 28.6071V1.17847M23.8541 28.6071C29.9924 28.6071 35.542 27.0319 39.5245 24.4928M23.8541 28.6071C17.7158 28.6071 12.1661 27.0319 8.18367 24.4928M1.91113 14.8928C1.91113 11.155 4.30361 7.76649 8.18367 5.29277M1.91113 14.8928C1.91113 18.6306 4.30361 22.0191 8.18367 24.4928M23.8541 1.17847C29.9924 1.17847 35.542 2.75375 39.5245 5.29277M23.8541 1.17847C17.7158 1.17847 12.1661 2.75375 8.18367 5.29277M39.5245 24.4928C35.542 21.9538 29.9924 20.3785 23.8541 20.3785C17.7158 20.3785 12.1661 21.9538 8.18367 24.4928M39.5245 5.29277C35.542 7.83179 29.9924 9.40707 23.8541 9.40707C17.7158 9.40707 12.1661 7.83179 8.18367 5.29277" stroke="#FBFBF8" stroke-width="2"/>
</svg>
