<svg width="40" height="40" viewBox="0 0 40 40" fill="none" xmlns="http://www.w3.org/2000/svg">
<g clip-path="url(#clip0)">
<path d="M6.81954 29.905H9.42423C9.22494 31.7864 7.4962 33.1277 5.25302 33.1277C2.69468 33.1277 0.618347 31.3882 0.618347 28.2936C0.618347 25.3273 2.50003 23.4961 5.27156 23.4961C7.75576 23.4961 9.53547 24.9977 9.53547 27.5612V28.8613H5.32717V27.0485H7.05127C7.0281 26.2336 6.44414 25.7118 5.2901 25.7118C3.95531 25.7118 3.26938 26.6823 3.26938 28.3302C3.26938 29.9553 4.01092 30.9121 5.30863 30.9121C6.11507 30.9121 6.66197 30.5458 6.81954 29.905Z" fill="#FBFBF8"/>
<path d="M17.4883 29.3303H10.9627V27.2541H17.4883V29.3303Z" fill="#FBFBF8"/>
<path d="M6.81954 29.905H9.42423C9.22494 31.7864 7.4962 33.1277 5.25302 33.1277C2.69468 33.1277 0.618347 31.3882 0.618347 28.2936C0.618347 25.3273 2.50003 23.4961 5.27156 23.4961C7.75576 23.4961 9.53547 24.9977 9.53547 27.5612V28.8613H5.32717V27.0485H7.05127C7.0281 26.2336 6.44414 25.7118 5.2901 25.7118C3.95531 25.7118 3.26938 26.6823 3.26938 28.3302C3.26938 29.9553 4.01092 30.9121 5.30863 30.9121C6.11507 30.9121 6.66197 30.5458 6.81954 29.905Z" stroke="#101010" stroke-width="0.807731"/>
<path d="M17.4883 29.3303H10.9627V27.2541H17.4883V29.3303Z" stroke="#101010" stroke-width="0.807731"/>
<path d="M10.3893 33.471V30.8686C8.50627 31.0677 7.16382 32.7949 7.16382 35.0361C7.16382 37.5922 8.90488 39.6667 12.0021 39.6667C14.9711 39.6667 16.8038 37.7867 16.8038 35.0176C16.8038 32.5356 15.3009 30.7574 12.7352 30.7574H11.434V34.962H13.2483V33.2394C14.0639 33.2626 14.5862 33.8461 14.5862 34.9991C14.5862 36.3327 13.6149 37.018 11.9655 37.018C10.339 37.018 9.38137 36.2771 9.38137 34.9805C9.38137 34.1748 9.74791 33.6284 10.3893 33.471Z" fill="#FBFBF8"/>
<path d="M10.9642 22.812V29.3319H13.0423V22.812H10.9642Z" fill="#FBFBF8"/>
<path d="M10.3893 33.471V30.8686C8.50627 31.0677 7.16382 32.7949 7.16382 35.0361C7.16382 37.5922 8.90488 39.6667 12.0021 39.6667C14.9711 39.6667 16.8038 37.7867 16.8038 35.0176C16.8038 32.5356 15.3009 30.7574 12.7352 30.7574H11.434V34.962H13.2483V33.2394C14.0639 33.2626 14.5862 33.8461 14.5862 34.9991C14.5862 36.3327 13.6149 37.018 11.9655 37.018C10.339 37.018 9.38137 36.2771 9.38137 34.9805C9.38137 34.1748 9.74791 33.6284 10.3893 33.471Z" stroke="#101010" stroke-width="0.807731"/>
<path d="M10.9642 22.812V29.3319H13.0423V22.812H10.9642Z" stroke="#101010" stroke-width="0.807731"/>
<path d="M33.1886 29.905H30.584C30.7833 31.7864 32.512 33.1277 34.7552 33.1277C37.3135 33.1277 39.3899 31.3882 39.3899 28.2936C39.3899 25.3273 37.5083 23.4961 34.7366 23.4961C32.2525 23.4961 30.4728 24.9977 30.4728 27.5612V28.8613H34.681V27.0485H32.9569C32.9801 26.2336 33.5641 25.7118 34.7181 25.7118C36.0528 25.7118 36.7389 26.6823 36.7389 28.3302C36.7389 29.9553 35.9973 30.9121 34.6996 30.9121C33.8932 30.9121 33.3463 30.5458 33.1886 29.905Z" fill="#FBFBF8"/>
<path d="M22.5202 29.3303H29.0457V27.2541H22.5202V29.3303Z" fill="#FBFBF8"/>
<path d="M33.1886 29.905H30.584C30.7833 31.7864 32.512 33.1277 34.7552 33.1277C37.3135 33.1277 39.3899 31.3882 39.3899 28.2936C39.3899 25.3273 37.5083 23.4961 34.7366 23.4961C32.2525 23.4961 30.4728 24.9977 30.4728 27.5612V28.8613H34.681V27.0485H32.9569C32.9801 26.2336 33.5641 25.7118 34.7181 25.7118C36.0528 25.7118 36.7389 26.6823 36.7389 28.3302C36.7389 29.9553 35.9973 30.9121 34.6996 30.9121C33.8932 30.9121 33.3463 30.5458 33.1886 29.905Z" stroke="#101010" stroke-width="0.807731"/>
<path d="M22.5202 29.3303H29.0457V27.2541H22.5202V29.3303Z" stroke="#101010" stroke-width="0.807731"/>
<path d="M29.6192 33.471V30.8686C31.5023 31.0677 32.8448 32.7949 32.8448 35.0361C32.8448 37.5922 31.1037 39.6667 28.0065 39.6667C25.0375 39.6667 23.2048 37.7867 23.2048 35.0176C23.2048 32.5356 24.7077 30.7574 27.2734 30.7574H28.5746V34.962H26.7603V33.2394C25.9447 33.2626 25.4224 33.8461 25.4224 34.9991C25.4224 36.3327 26.3938 37.018 28.0432 37.018C29.6696 37.018 30.6272 36.2771 30.6272 34.9805C30.6272 34.1748 30.2607 33.6284 29.6192 33.471Z" fill="#FBFBF8"/>
<path d="M29.0439 22.812V29.3319H26.9659V22.812H29.0439Z" fill="#FBFBF8"/>
<path d="M29.6192 33.471V30.8686C31.5023 31.0677 32.8448 32.7949 32.8448 35.0361C32.8448 37.5922 31.1037 39.6667 28.0065 39.6667C25.0375 39.6667 23.2048 37.7867 23.2048 35.0176C23.2048 32.5356 24.7077 30.7574 27.2734 30.7574H28.5746V34.962H26.7603V33.2394C25.9447 33.2626 25.4224 33.8461 25.4224 34.9991C25.4224 36.3327 26.3938 37.018 28.0432 37.018C29.6696 37.018 30.6272 36.2771 30.6272 34.9805C30.6272 34.1748 30.2607 33.6284 29.6192 33.471Z" stroke="#101010" stroke-width="0.807731"/>
<path d="M29.0439 22.812V29.3319H26.9659V22.812H29.0439Z" stroke="#101010" stroke-width="0.807731"/>
<path d="M10.3893 7.09092V9.69328C8.50627 9.49412 7.16382 7.76699 7.16382 5.52569C7.16382 2.96968 8.90488 0.895123 12.0021 0.895123C14.9711 0.895123 16.8038 2.77522 16.8038 5.54432C16.8038 8.02627 15.3009 9.80444 12.7352 9.80444H11.434V5.5999H13.2483V7.32249C14.0639 7.29932 14.5862 6.71578 14.5862 5.5628C14.5862 4.22913 13.6149 3.54382 11.9655 3.54382C10.339 3.54382 9.38137 4.28472 9.38137 5.58127C9.38137 6.38699 9.74791 6.93342 10.3893 7.09092Z" fill="#FBFBF8"/>
<path d="M10.9642 17.7507V11.2308H13.0423V17.7507H10.9642Z" fill="#FBFBF8"/>
<path d="M10.3893 7.09092V9.69328C8.50627 9.49412 7.16382 7.76699 7.16382 5.52569C7.16382 2.96968 8.90488 0.895123 12.0021 0.895123C14.9711 0.895123 16.8038 2.77522 16.8038 5.54432C16.8038 8.02627 15.3009 9.80444 12.7352 9.80444H11.434V5.5999H13.2483V7.32249C14.0639 7.29932 14.5862 6.71578 14.5862 5.5628C14.5862 4.22913 13.6149 3.54382 11.9655 3.54382C10.339 3.54382 9.38137 4.28472 9.38137 5.58127C9.38137 6.38699 9.74791 6.93342 10.3893 7.09092Z" stroke="#101010" stroke-width="0.807731"/>
<path d="M10.9642 17.7507V11.2308H13.0423V17.7507H10.9642Z" stroke="#101010" stroke-width="0.807731"/>
<path d="M6.81954 10.6573H9.42423C9.22494 8.77581 7.4962 7.43458 5.25302 7.43458C2.69468 7.43458 0.618347 9.17413 0.618347 12.2687C0.618347 15.235 2.50003 17.0662 5.27156 17.0662C7.75576 17.0662 9.53547 15.5647 9.53547 13.0011V11.7011H5.32717V13.5138H7.05127C7.0281 14.3287 6.44414 14.8505 5.2901 14.8505C3.95531 14.8505 3.26938 13.88 3.26938 12.232C3.26938 10.607 4.01092 9.65028 5.30863 9.65028C6.11507 9.65028 6.66197 10.0165 6.81954 10.6573Z" fill="#FBFBF8"/>
<path d="M17.4883 11.232H10.9627V13.3082H17.4883V11.232Z" fill="#FBFBF8"/>
<path d="M6.81954 10.6573H9.42423C9.22494 8.77581 7.4962 7.43458 5.25302 7.43458C2.69468 7.43458 0.618347 9.17413 0.618347 12.2687C0.618347 15.235 2.50003 17.0662 5.27156 17.0662C7.75576 17.0662 9.53547 15.5647 9.53547 13.0011V11.7011H5.32717V13.5138H7.05127C7.0281 14.3287 6.44414 14.8505 5.2901 14.8505C3.95531 14.8505 3.26938 13.88 3.26938 12.232C3.26938 10.607 4.01092 9.65028 5.30863 9.65028C6.11507 9.65028 6.66197 10.0165 6.81954 10.6573Z" stroke="#101010" stroke-width="0.807731"/>
<path d="M17.4883 11.232H10.9627V13.3082H17.4883V11.232Z" stroke="#101010" stroke-width="0.807731"/>
<path d="M29.6192 7.09092V9.69328C31.5023 9.49412 32.8448 7.76699 32.8448 5.52569C32.8448 2.96968 31.1037 0.895123 28.0065 0.895123C25.0375 0.895123 23.2048 2.77522 23.2048 5.54432C23.2048 8.02627 24.7077 9.80444 27.2734 9.80444H28.5746V5.5999H26.7603V7.32249C25.9447 7.29932 25.4224 6.71578 25.4224 5.5628C25.4224 4.22913 26.3938 3.54382 28.0432 3.54382C29.6696 3.54382 30.6272 4.28472 30.6272 5.58127C30.6272 6.38699 30.2607 6.93342 29.6192 7.09092Z" fill="#FBFBF8"/>
<path d="M29.0439 17.7507V11.2308H26.9659V17.7507H29.0439Z" fill="#FBFBF8"/>
<path d="M29.6192 7.09092V9.69328C31.5023 9.49412 32.8448 7.76699 32.8448 5.52569C32.8448 2.96968 31.1037 0.895123 28.0065 0.895123C25.0375 0.895123 23.2048 2.77522 23.2048 5.54432C23.2048 8.02627 24.7077 9.80444 27.2734 9.80444H28.5746V5.5999H26.7603V7.32249C25.9447 7.29932 25.4224 6.71578 25.4224 5.5628C25.4224 4.22913 26.3938 3.54382 28.0432 3.54382C29.6696 3.54382 30.6272 4.28472 30.6272 5.58127C30.6272 6.38699 30.2607 6.93342 29.6192 7.09092Z" stroke="#101010" stroke-width="0.807731"/>
<path d="M29.0439 17.7507V11.2308H26.9659V17.7507H29.0439Z" stroke="#101010" stroke-width="0.807731"/>
<path d="M33.1886 10.6573H30.584C30.7833 8.77581 32.512 7.43458 34.7552 7.43458C37.3135 7.43458 39.3899 9.17413 39.3899 12.2687C39.3899 15.235 37.5083 17.0662 34.7366 17.0662C32.2525 17.0662 30.4728 15.5647 30.4728 13.0011V11.7011H34.681V13.5138H32.9569C32.9801 14.3287 33.5641 14.8505 34.7181 14.8505C36.0528 14.8505 36.7389 13.88 36.7389 12.232C36.7389 10.607 35.9973 9.65028 34.6996 9.65028C33.8932 9.65028 33.3463 10.0165 33.1886 10.6573Z" fill="#FBFBF8"/>
<path d="M22.5202 11.232H29.0457V13.3082H22.5202V11.232Z" fill="#FBFBF8"/>
<path d="M33.1886 10.6573H30.584C30.7833 8.77581 32.512 7.43458 34.7552 7.43458C37.3135 7.43458 39.3899 9.17413 39.3899 12.2687C39.3899 15.235 37.5083 17.0662 34.7366 17.0662C32.2525 17.0662 30.4728 15.5647 30.4728 13.0011V11.7011H34.681V13.5138H32.9569C32.9801 14.3287 33.5641 14.8505 34.7181 14.8505C36.0528 14.8505 36.7389 13.88 36.7389 12.232C36.7389 10.607 35.9973 9.65028 34.6996 9.65028C33.8932 9.65028 33.3463 10.0165 33.1886 10.6573Z" stroke="#101010" stroke-width="0.807731"/>
<path d="M22.5202 11.232H29.0457V13.3082H22.5202V11.232Z" stroke="#101010" stroke-width="0.807731"/>
<path d="M21.3624 33.0677H18.7702V23.6328H21.3624V33.0677Z" fill="#FBFBF8"/>
<path d="M21.3624 17.1576H18.7702V7.72258H21.3624V17.1576Z" fill="#FBFBF8"/>
<path d="M7.29004 21.5969V19.007H16.7333V21.5969H7.29004Z" fill="#FBFBF8"/>
<path d="M23.2143 21.5969V19.007H32.6576V21.5969H23.2143Z" fill="#FBFBF8"/>
</g>
<defs>
<clipPath id="clip0">
<rect width="38.7711" height="38.7711" fill="white" transform="matrix(1 0 0 -1 0.619141 39.666)"/>
</clipPath>
</defs>
</svg>
